<svg version="1.1" xmlns="http://www.w3.org/2000/svg" viewBox="0 0 500.5336381928136 253.00293851907355" width="500.5336381928136" height="253.00293851907355" class="excalidraw-svg"><!-- svg-source:excalidraw --><metadata></metadata><defs><style class="style-fonts">
      </style></defs><rect x="0" y="0" width="500.5336381928136" height="253.00293851907355" fill="#ffffff"></rect><g stroke-linecap="round"><g transform="translate(37.836371591074794 211.46144639507577) rotate(0 48.03813046840754 -83.20448267190432)"><path d="M0.73 -0.67 C16.81 -28.4, 79.54 -138.72, 95.52 -166.18 M-0.35 1.6 C15.6 -26.54, 78.2 -140.04, 94.28 -168.19" stroke="#1e1e1e" stroke-width="2" fill="none"></path></g></g><mask></mask><g stroke-linecap="round"><g transform="translate(352.2492395874062 212.75473447316682) rotate(0 48.03813046840753 -83.20448267190432)"><path d="M-0.57 -0.19 C15.49 -27.78, 79.52 -138.77, 95.47 -166.62 M1.33 -1.33 C17.87 -28.64, 81.83 -137.68, 97.86 -165.19" stroke="#1e1e1e" stroke-width="2" fill="none"></path></g></g><mask></mask><g stroke-linecap="round"><g transform="translate(133.8363715910748 42.46144639507577) rotate(0 157.5 0)"><path d="M0.28 -0.69 C52.77 -0.65, 262.28 0.68, 314.87 0.91 M-1.04 1.57 C51.29 1.21, 261.1 -0.26, 313.85 -0.73" stroke="#1e1e1e" stroke-width="2" fill="none"></path></g></g><mask></mask><g stroke-linecap="round"><g transform="translate(38.92197079768633 214.04246192075954) rotate(0 157.5 0)"><path d="M0.19 -0.35 C53.03 -0.58, 263.23 -0.32, 315.88 -0.35 M-1.17 -1.58 C51.69 -1.11, 262.55 0.65, 315.4 1.01" stroke="#1e1e1e" stroke-width="2" fill="none"></path></g></g><mask></mask><g stroke-linecap="round"><g transform="translate(38.496762264922666 211.15361598768942) rotate(0 205.34431632076627 -82.97586659492188)"><path d="M0.52 0.29 C68.79 -27.38, 342.4 -138.89, 410.6 -166.66 M-0.67 -0.6 C67.36 -28.08, 340.81 -138.07, 409.61 -165.5" stroke="#1e1e1e" stroke-width="2" fill="none"></path></g></g><mask></mask><g transform="translate(101.07788723887046 39.05552230933293) rotate(0 8.940160710563973 -14.527761154666464)" stroke="none"><path fill="#1e1e1e" d="M -1.10,-0.73 Q -1.10,-0.73 -0.79,-1.21 -0.47,-1.70 -0.01,-2.38 0.45,-3.06 0.79,-4.03 1.12,-5.00 1.38,-5.80 1.65,-6.60 1.96,-7.09 2.26,-7.58 2.50,-8.24 2.74,-8.90 3.06,-9.66 3.38,-10.43 3.38,-11.17 3.37,-11.91 3.38,-12.51 3.38,-13.11 3.63,-13.74 3.89,-14.37 4.17,-14.98 4.45,-15.59 4.57,-16.53 4.69,-17.47 5.01,-17.93 5.33,-18.38 5.65,-19.07 5.97,-19.76 6.23,-20.23 6.50,-20.70 6.80,-21.50 7.10,-22.29 7.17,-22.87 7.23,-23.45 7.50,-24.44 7.77,-25.43 7.79,-25.96 7.81,-26.49 8.08,-27.11 8.34,-27.73 8.65,-28.46 8.96,-29.19 9.05,-29.37 9.14,-29.56 9.27,-29.71 9.40,-29.87 9.56,-29.99 9.73,-30.11 9.91,-30.18 10.10,-30.26 10.30,-30.29 10.50,-30.32 10.71,-30.30 10.91,-30.28 11.10,-30.21 11.29,-30.15 11.46,-30.04 11.63,-29.93 11.77,-29.78 11.91,-29.63 12.01,-29.45 12.11,-29.27 12.16,-29.08 12.22,-28.88 12.22,-28.68 12.23,-28.47 12.18,-28.28 12.14,-28.08 12.14,-28.63 12.13,-29.19 12.22,-28.47 12.31,-27.75 12.53,-26.90 12.75,-26.06 13.05,-25.48 13.34,-24.91 13.63,-23.90 13.93,-22.90 14.33,-21.78 14.73,-20.67 14.87,-19.80 15.02,-18.93 15.23,-18.31 15.44,-17.69 15.86,-16.64 16.29,-15.58 16.33,-15.02 16.37,-14.45 16.73,-13.66 17.09,-12.87 17.35,-12.14 17.62,-11.41 17.80,-10.79 17.98,-10.16 18.14,-9.13 18.29,-8.10 18.54,-7.54 18.78,-6.97 19.13,-5.23 19.48,-3.49 19.48,-3.30 19.48,-3.10 19.43,-2.91 19.38,-2.72 19.28,-2.55 19.19,-2.37 19.06,-2.23 18.92,-2.08 18.76,-1.97 18.60,-1.86 18.41,-1.80 18.23,-1.73 18.03,-1.71 17.83,-1.69 17.64,-1.71 17.44,-1.74 17.26,-1.81 17.08,-1.89 16.92,-2.00 16.76,-2.11 16.63,-2.26 16.50,-2.41 16.41,-2.59 16.32,-2.76 16.28,-2.96 16.23,-3.15 16.56,-3.89 16.89,-4.64 17.12,-4.76 17.36,-4.88 17.62,-4.92 17.88,-4.96 18.14,-4.91 18.40,-4.86 18.63,-4.74 18.86,-4.61 19.04,-4.41 19.22,-4.22 19.33,-3.98 19.44,-3.74 19.46,-3.47 19.49,-3.21 19.43,-2.95 19.37,-2.70 19.23,-2.47 19.09,-2.25 18.88,-2.08 18.68,-1.91 18.43,-1.82 18.19,-1.72 17.92,-1.71 17.66,-1.70 17.40,-1.77 17.15,-1.85 16.93,-2.00 16.72,-2.15 16.56,-2.36 16.40,-2.58 16.32,-2.83 16.24,-3.08 16.24,-3.34 16.25,-3.61 16.34,-3.86 16.42,-4.11 16.59,-4.31 16.75,-4.52 16.97,-4.67 17.19,-4.81 17.45,-4.88 17.70,-4.95 17.97,-4.93 18.23,-4.91 18.47,-4.81 18.72,-4.71 18.92,-4.54 19.12,-4.36 19.25,-4.13 19.38,-3.90 19.44,-3.65 19.49,-3.39 19.46,-3.12 19.43,-2.86 19.31,-2.62 19.20,-2.39 19.34,-2.94 19.48,-3.50 19.48,-3.30 19.48,-3.10 19.43,-2.91 19.38,-2.72 19.28,-2.55 19.19,-2.37 19.06,-2.23 18.92,-2.08 18.76,-1.97 18.60,-1.86 18.41,-1.80 18.23,-1.73 18.03,-1.71 17.83,-1.69 17.64,-1.71 17.44,-1.74 17.26,-1.81 17.08,-1.89 16.92,-2.00 16.76,-2.11 16.63,-2.26 16.50,-2.41 16.41,-2.59 16.32,-2.76 16.28,-2.96 16.23,-3.15 15.92,-4.84 15.61,-6.54 15.37,-7.17 15.13,-7.80 15.08,-8.41 15.02,-9.01 14.82,-9.90 14.62,-10.80 14.42,-11.84 14.22,-12.88 13.93,-13.42 13.65,-13.95 13.56,-14.79 13.48,-15.63 13.17,-16.19 12.87,-16.75 12.58,-17.51 12.29,-18.27 11.97,-19.48 11.65,-20.69 11.32,-21.31 10.99,-21.93 10.75,-22.53 10.52,-23.13 10.20,-23.65 9.88,-24.18 9.66,-25.00 9.44,-25.83 9.24,-26.87 9.04,-27.92 9.00,-28.55 8.96,-29.19 9.05,-29.37 9.14,-29.56 9.27,-29.71 9.40,-29.87 9.56,-29.99 9.73,-30.11 9.91,-30.18 10.10,-30.26 10.30,-30.29 10.50,-30.32 10.71,-30.30 10.91,-30.28 11.10,-30.21 11.29,-30.15 11.46,-30.04 11.63,-29.93 11.77,-29.78 11.91,-29.63 12.01,-29.45 12.11,-29.27 12.16,-29.08 12.22,-28.88 12.22,-28.68 12.23,-28.47 12.18,-28.28 12.14,-28.08 12.10,-27.80 12.05,-27.52 11.82,-27.00 11.58,-26.49 11.30,-25.91 11.02,-25.33 10.77,-24.26 10.53,-23.19 10.47,-22.58 10.42,-21.98 10.12,-21.08 9.82,-20.19 9.65,-19.67 9.48,-19.15 9.22,-18.61 8.95,-18.08 8.39,-17.17 7.83,-16.26 7.74,-15.51 7.65,-14.76 7.38,-14.22 7.10,-13.67 6.89,-13.05 6.68,-12.42 6.65,-11.82 6.63,-11.22 6.54,-10.48 6.44,-9.74 6.15,-9.16 5.85,-8.57 5.54,-7.72 5.23,-6.86 5.03,-6.37 4.83,-5.88 4.49,-5.29 4.15,-4.71 3.84,-3.88 3.54,-3.05 3.20,-2.47 2.86,-1.89 2.31,-1.06 1.76,-0.22 1.43,0.25 1.10,0.73 0.99,0.85 0.89,0.97 0.76,1.07 0.63,1.16 0.48,1.22 0.33,1.28 0.17,1.30 0.02,1.32 -0.13,1.30 -0.29,1.29 -0.44,1.23 -0.59,1.18 -0.73,1.09 -0.86,1.00 -0.97,0.88 -1.07,0.77 -1.15,0.63 -1.23,0.49 -1.27,0.33 -1.31,0.18 -1.31,0.02 -1.31,-0.13 -1.28,-0.29 -1.24,-0.45 -1.17,-0.59 -1.10,-0.73 -1.10,-0.73 L -1.10,-0.73 Z"></path></g><g transform="translate(117.28192852676767 28.43908146553821) rotate(0 -5.30822042189736 0)" stroke="none"><path fill="#1e1e1e" d="M 0,1.33 Q 0,1.33 -0.64,1.33 -1.28,1.33 -2.06,1.37 -2.84,1.40 -3.44,1.43 -4.03,1.46 -4.60,1.49 -5.17,1.52 -5.73,1.54 -6.29,1.56 -8.18,1.57 -10.08,1.58 -10.27,1.56 -10.46,1.53 -10.64,1.47 -10.82,1.40 -10.97,1.29 -11.13,1.18 -11.26,1.04 -11.38,0.90 -11.47,0.73 -11.56,0.56 -11.61,0.37 -11.65,0.19 -11.65,-0.00 -11.65,-0.19 -11.61,-0.37 -11.56,-0.56 -11.47,-0.73 -11.38,-0.90 -11.26,-1.04 -11.13,-1.18 -10.97,-1.29 -10.82,-1.40 -10.64,-1.47 -10.46,-1.53 -10.27,-1.56 -10.08,-1.58 -9.83,-1.54 -9.57,-1.50 -9.35,-1.38 -9.12,-1.26 -8.94,-1.07 -8.77,-0.88 -8.66,-0.65 -8.55,-0.42 -8.52,-0.16 -8.50,0.08 -8.55,0.33 -8.61,0.58 -8.74,0.80 -8.87,1.02 -9.07,1.19 -9.26,1.35 -9.50,1.45 -9.74,1.54 -9.99,1.56 -10.25,1.57 -10.50,1.50 -10.74,1.43 -10.96,1.29 -11.17,1.15 -11.32,0.94 -11.48,0.74 -11.56,0.49 -11.64,0.25 -11.64,-0.00 -11.64,-0.25 -11.56,-0.49 -11.48,-0.74 -11.32,-0.94 -11.17,-1.15 -10.96,-1.29 -10.74,-1.43 -10.50,-1.50 -10.25,-1.57 -9.99,-1.56 -9.74,-1.54 -9.50,-1.45 -9.26,-1.35 -9.07,-1.19 -8.87,-1.02 -8.74,-0.80 -8.61,-0.58 -8.55,-0.33 -8.50,-0.08 -8.52,0.16 -8.55,0.42 -8.66,0.65 -8.77,0.88 -8.94,1.07 -9.12,1.26 -9.35,1.38 -9.57,1.50 -9.83,1.54 -10.08,1.58 -10.08,1.58 -10.08,1.58 -10.27,1.56 -10.46,1.53 -10.64,1.47 -10.82,1.40 -10.97,1.29 -11.13,1.18 -11.26,1.04 -11.38,0.90 -11.47,0.73 -11.56,0.56 -11.61,0.37 -11.65,0.19 -11.65,0.00 -11.65,-0.19 -11.61,-0.37 -11.56,-0.56 -11.47,-0.73 -11.38,-0.90 -11.26,-1.04 -11.13,-1.18 -10.97,-1.29 -10.82,-1.40 -10.64,-1.47 -10.46,-1.53 -10.27,-1.56 -10.08,-1.58 -8.18,-1.57 -6.29,-1.56 -5.73,-1.54 -5.17,-1.52 -4.60,-1.49 -4.03,-1.46 -3.44,-1.43 -2.84,-1.40 -2.06,-1.37 -1.28,-1.33 -0.64,-1.33 0,-1.33 0.15,-1.31 0.31,-1.29 0.46,-1.23 0.61,-1.18 0.75,-1.08 0.88,-0.99 0.99,-0.87 1.09,-0.75 1.17,-0.61 1.24,-0.47 1.28,-0.31 1.32,-0.16 1.32,0.00 1.32,0.16 1.28,0.31 1.24,0.47 1.17,0.61 1.09,0.75 0.99,0.87 0.88,0.99 0.75,1.08 0.61,1.18 0.46,1.23 0.31,1.29 0.15,1.31 -0.00,1.33 -0.00,1.33 L 0,1.33 Z"></path></g><g transform="translate(10 241.32665838584285) rotate(0 10.61644084379472 -14.527761154666479)" stroke="none"><path fill="#1e1e1e" d="M -1.24,-0.17 Q -1.24,-0.17 -1.00,-1.29 -0.76,-2.40 -0.72,-3.02 -0.67,-3.64 -0.65,-4.25 -0.63,-4.86 -0.40,-5.36 -0.17,-5.87 -0.01,-7.01 0.14,-8.16 0.38,-9.12 0.62,-10.07 0.90,-11.26 1.18,-12.45 1.46,-13.58 1.73,-14.71 1.79,-15.42 1.85,-16.14 1.85,-16.79 1.84,-17.44 1.82,-18.01 1.80,-18.58 1.78,-19.14 1.76,-19.70 1.75,-20.26 1.73,-20.81 1.72,-21.37 1.70,-21.93 1.69,-22.49 1.68,-23.05 1.81,-23.88 1.94,-24.72 2.24,-25.17 2.55,-25.61 2.97,-26.31 3.40,-27.01 3.92,-27.77 4.44,-28.52 5.00,-29.17 5.55,-29.81 6.17,-29.86 6.78,-29.90 7.77,-30.32 8.76,-30.75 9.30,-30.75 9.83,-30.75 10.38,-30.74 10.93,-30.74 11.48,-30.73 12.03,-30.71 12.59,-30.70 13.14,-30.69 14.29,-30.48 15.43,-30.27 15.97,-29.96 16.51,-29.65 17.26,-29.37 18.00,-29.09 18.60,-28.81 19.19,-28.53 19.62,-28.21 20.05,-27.90 20.72,-27.29 21.39,-26.67 21.69,-26.16 21.98,-25.64 22.13,-24.64 22.27,-23.64 22.28,-23.10 22.28,-22.57 22.29,-21.69 22.29,-20.81 22.06,-20.01 21.83,-19.22 21.43,-18.69 21.02,-18.17 20.50,-17.64 19.99,-17.12 19.18,-16.54 18.37,-15.97 17.74,-15.60 17.11,-15.24 16.55,-14.93 16.00,-14.62 15.26,-14.43 14.52,-14.24 13.51,-14.15 12.51,-14.07 11.96,-14.06 11.42,-14.06 10.70,-14.04 9.98,-14.03 9.00,-14.03 8.02,-14.04 7.48,-14.05 6.94,-14.05 6.39,-14.06 5.84,-14.07 5.12,-14.06 4.39,-14.04 3.85,-14.15 3.31,-14.26 3.43,-14.30 3.54,-14.33 3.34,-14.36 3.15,-14.38 2.96,-14.45 2.78,-14.52 2.62,-14.63 2.46,-14.74 2.33,-14.89 2.20,-15.04 2.11,-15.21 2.01,-15.38 1.97,-15.57 1.92,-15.77 1.92,-15.96 1.92,-16.16 1.97,-16.35 2.01,-16.54 2.11,-16.71 2.20,-16.89 2.33,-17.03 2.46,-17.18 2.62,-17.29 2.78,-17.40 2.96,-17.47 3.15,-17.54 3.34,-17.57 3.54,-17.59 4.06,-17.71 4.57,-17.83 5.15,-17.85 5.73,-17.87 6.66,-17.65 7.58,-17.42 8.42,-17.13 9.27,-16.84 9.99,-16.54 10.71,-16.24 11.34,-15.95 11.98,-15.66 12.76,-15.15 13.55,-14.64 14.16,-14.30 14.77,-13.95 15.45,-13.66 16.13,-13.36 17.07,-13.00 18.02,-12.65 19.01,-12.15 20.00,-11.64 20.44,-11.22 20.88,-10.79 21.39,-10.28 21.91,-9.77 22.18,-9.28 22.44,-8.79 22.59,-7.98 22.73,-7.18 22.54,-6.44 22.34,-5.71 21.83,-5.00 21.32,-4.29 20.70,-3.79 20.07,-3.28 19.16,-2.62 18.25,-1.95 17.45,-1.64 16.65,-1.32 16.06,-1.06 15.46,-0.80 14.89,-0.53 14.32,-0.26 13.53,0.01 12.73,0.29 12.19,0.44 11.65,0.60 10.67,0.72 9.70,0.84 9.16,0.86 8.62,0.87 7.90,0.90 7.19,0.93 5.80,0.42 4.41,-0.08 4.22,-0.10 4.04,-0.12 3.87,-0.19 3.69,-0.25 3.54,-0.36 3.39,-0.46 3.27,-0.60 3.14,-0.74 3.06,-0.90 2.97,-1.06 2.93,-1.24 2.88,-1.42 2.88,-1.61 2.88,-1.79 2.93,-1.97 2.97,-2.15 3.06,-2.31 3.14,-2.48 3.26,-2.62 3.39,-2.75 3.54,-2.86 3.69,-2.97 3.86,-3.03 4.03,-3.10 4.22,-3.12 4.40,-3.14 4.06,-3.06 3.73,-2.98 3.96,-3.06 4.20,-3.13 4.45,-3.12 4.69,-3.11 4.93,-3.03 5.16,-2.94 5.35,-2.79 5.55,-2.63 5.68,-2.42 5.81,-2.21 5.87,-1.97 5.93,-1.73 5.91,-1.48 5.89,-1.24 5.79,-1.01 5.69,-0.78 5.53,-0.60 5.36,-0.41 5.15,-0.29 4.93,-0.17 4.69,-0.12 4.44,-0.08 4.20,-0.11 3.95,-0.15 3.73,-0.26 3.51,-0.37 3.33,-0.54 3.16,-0.72 3.05,-0.94 2.94,-1.16 2.91,-1.41 2.87,-1.65 2.92,-1.90 2.97,-2.14 3.09,-2.36 3.21,-2.57 3.40,-2.74 3.58,-2.90 3.81,-3.00 4.04,-3.10 4.28,-3.12 4.53,-3.14 4.77,-3.08 5.01,-3.02 5.22,-2.88 5.43,-2.75 5.58,-2.56 5.74,-2.36 5.82,-2.13 5.91,-1.90 5.92,-1.65 5.92,-1.40 5.85,-1.16 5.78,-0.93 5.63,-0.73 5.49,-0.52 4.95,-0.30 4.41,-0.08 4.22,-0.10 4.04,-0.12 3.87,-0.19 3.69,-0.25 3.54,-0.36 3.39,-0.46 3.27,-0.60 3.14,-0.74 3.06,-0.90 2.97,-1.06 2.93,-1.24 2.88,-1.42 2.88,-1.61 2.88,-1.79 2.93,-1.97 2.97,-2.15 3.06,-2.31 3.14,-2.48 3.26,-2.62 3.38,-2.75 3.54,-2.86 3.69,-2.97 3.86,-3.03 4.03,-3.10 4.22,-3.12 4.40,-3.14 5.79,-2.60 7.17,-2.06 7.87,-2.03 8.57,-2.01 9.48,-2.02 10.39,-2.03 11.08,-2.13 11.76,-2.23 12.43,-2.51 13.09,-2.80 13.68,-3.09 14.27,-3.38 14.90,-3.68 15.54,-3.99 16.10,-4.24 16.67,-4.50 17.45,-5.07 18.23,-5.65 18.84,-6.20 19.44,-6.76 19.60,-7.28 19.75,-7.80 19.21,-8.53 18.67,-9.25 18.16,-9.52 17.65,-9.78 16.95,-10.22 16.25,-10.67 15.71,-10.84 15.17,-11.01 14.34,-11.33 13.51,-11.64 12.85,-11.99 12.19,-12.34 11.50,-12.71 10.82,-13.07 10.24,-13.32 9.67,-13.56 9.06,-13.78 8.46,-14.00 7.69,-14.16 6.93,-14.33 6.34,-14.42 5.74,-14.52 5.15,-14.61 4.57,-14.71 4.05,-14.52 3.54,-14.33 3.34,-14.36 3.15,-14.38 2.96,-14.45 2.78,-14.52 2.62,-14.63 2.46,-14.74 2.33,-14.89 2.20,-15.04 2.11,-15.21 2.01,-15.38 1.97,-15.57 1.92,-15.77 1.92,-15.96 1.92,-16.16 1.97,-16.35 2.01,-16.54 2.11,-16.71 2.20,-16.89 2.33,-17.03 2.46,-17.18 2.62,-17.29 2.78,-17.40 2.96,-17.47 3.15,-17.54 3.34,-17.57 3.54,-17.59 3.96,-17.41 4.39,-17.24 5.12,-17.22 5.84,-17.21 6.39,-17.22 6.94,-17.23 8.00,-17.24 9.05,-17.25 9.83,-17.25 10.61,-17.25 11.49,-17.26 12.38,-17.27 13.10,-17.32 13.83,-17.37 14.52,-17.64 15.20,-17.90 15.67,-18.22 16.14,-18.54 16.91,-18.99 17.68,-19.43 18.27,-19.88 18.86,-20.32 18.95,-21.04 19.03,-21.77 19.01,-22.62 19.00,-23.47 18.80,-24.18 18.60,-24.89 17.96,-25.44 17.31,-25.98 16.59,-26.16 15.86,-26.33 15.13,-26.76 14.40,-27.19 13.77,-27.30 13.15,-27.41 12.60,-27.39 12.04,-27.38 10.98,-27.35 9.92,-27.31 9.43,-27.50 8.93,-27.69 8.19,-27.51 7.46,-27.32 7.23,-26.81 7.00,-26.31 6.73,-25.79 6.45,-25.27 5.93,-24.77 5.42,-24.27 5.22,-23.66 5.02,-23.05 5.00,-22.49 4.99,-21.93 4.98,-21.37 4.96,-20.81 4.95,-20.25 4.93,-19.69 4.91,-19.13 4.89,-18.56 4.86,-17.97 4.84,-17.38 4.79,-16.65 4.74,-15.93 4.68,-15.34 4.63,-14.76 4.34,-13.84 4.05,-12.92 3.77,-11.79 3.48,-10.66 3.38,-9.97 3.27,-9.27 2.98,-8.24 2.69,-7.21 2.48,-6.53 2.27,-5.85 1.97,-5.20 1.67,-4.56 1.63,-3.98 1.59,-3.40 1.50,-2.74 1.40,-2.09 1.32,-0.95 1.24,0.17 1.20,0.32 1.16,0.46 1.08,0.60 1.01,0.73 0.91,0.84 0.81,0.95 0.68,1.03 0.55,1.12 0.41,1.17 0.27,1.22 0.12,1.23 -0.02,1.25 -0.17,1.23 -0.32,1.20 -0.46,1.15 -0.60,1.09 -0.72,1.00 -0.85,0.92 -0.94,0.80 -1.04,0.68 -1.11,0.55 -1.18,0.41 -1.21,0.27 -1.24,0.12 -1.24,-0.02 -1.24,-0.17 -1.24,-0.17 L -1.24,-0.17 Z"></path></g><g transform="translate(380.45790944399465 243.00293851907355) rotate(0 -9.77830077717934 -12.572100999230571)" stroke="none"><path fill="#1e1e1e" d="M 0,1.08 Q 0,1.08 -1.12,1.02 -2.24,0.97 -3.37,0.92 -4.49,0.88 -5.66,0.69 -6.84,0.49 -7.77,0.43 -8.70,0.36 -9.41,0.37 -10.13,0.38 -11.00,0.22 -11.88,0.06 -12.50,0.02 -13.12,-0.00 -13.71,-0.19 -14.30,-0.39 -15.25,-0.63 -16.20,-0.87 -16.71,-1.11 -17.21,-1.34 -17.63,-1.75 -18.04,-2.16 -18.75,-2.60 -19.47,-3.05 -19.91,-3.63 -20.34,-4.20 -20.57,-4.92 -20.79,-5.63 -20.90,-6.44 -21.02,-7.25 -21.02,-7.90 -21.02,-8.56 -21.02,-9.15 -21.02,-9.74 -21.00,-10.47 -20.98,-11.21 -20.95,-12.00 -20.92,-12.80 -20.71,-13.74 -20.51,-14.68 -20.25,-15.43 -20.00,-16.19 -19.72,-16.94 -19.44,-17.70 -18.91,-18.89 -18.37,-20.07 -18.03,-20.51 -17.70,-20.95 -16.70,-22.03 -15.69,-23.12 -14.94,-23.46 -14.18,-23.80 -13.42,-24.05 -12.67,-24.29 -12.08,-24.55 -11.49,-24.80 -10.92,-25.07 -10.35,-25.34 -9.79,-25.62 -9.23,-25.90 -8.12,-26.17 -7.01,-26.43 -6.44,-26.46 -5.86,-26.50 -3.86,-26.54 -1.85,-26.58 -1.62,-26.54 -1.39,-26.51 -1.18,-26.40 -0.98,-26.29 -0.82,-26.12 -0.65,-25.95 -0.56,-25.74 -0.46,-25.53 -0.43,-25.29 -0.41,-25.06 -0.46,-24.83 -0.51,-24.61 -0.63,-24.41 -0.75,-24.21 -0.93,-24.05 -1.10,-23.90 -1.32,-23.82 -1.54,-23.73 -1.77,-23.72 -2.00,-23.71 -2.23,-23.77 -2.45,-23.83 -2.65,-23.96 -2.84,-24.09 -2.98,-24.28 -3.12,-24.46 -3.20,-24.68 -3.27,-24.91 -3.27,-25.14 -3.27,-25.37 -3.20,-25.59 -3.12,-25.81 -2.98,-26.00 -2.84,-26.19 -2.65,-26.32 -2.45,-26.45 -2.23,-26.51 -2.00,-26.57 -1.77,-26.56 -1.54,-26.55 -1.32,-26.46 -1.10,-26.37 -0.93,-26.22 -0.75,-26.07 -0.63,-25.87 -0.51,-25.67 -0.46,-25.45 -0.41,-25.22 -0.43,-24.99 -0.46,-24.75 -0.56,-24.54 -0.65,-24.33 -0.81,-24.16 -0.97,-23.99 -1.18,-23.88 -1.39,-23.77 -1.62,-23.73 -1.85,-23.70 -1.85,-23.70 -1.85,-23.70 -3.42,-23.70 -5.00,-23.70 -5.87,-23.70 -6.73,-23.70 -7.41,-23.63 -8.10,-23.56 -8.68,-23.28 -9.26,-23.00 -9.87,-22.72 -10.48,-22.44 -11.15,-22.16 -11.82,-21.87 -12.93,-21.50 -14.03,-21.13 -14.48,-20.74 -14.93,-20.35 -15.28,-19.80 -15.64,-19.25 -16.21,-18.60 -16.79,-17.96 -16.93,-17.43 -17.07,-16.90 -17.31,-16.13 -17.55,-15.35 -17.75,-14.76 -17.95,-14.18 -18.07,-13.48 -18.18,-12.79 -18.15,-12.00 -18.12,-11.21 -18.10,-10.49 -18.07,-9.76 -18.06,-9.18 -18.06,-8.60 -18.04,-8.02 -18.02,-7.45 -18.00,-6.87 -17.97,-6.30 -17.72,-5.65 -17.48,-5.00 -17.02,-4.72 -16.55,-4.43 -16.28,-3.97 -16.00,-3.51 -15.34,-3.10 -14.69,-2.68 -13.78,-2.34 -12.87,-2.01 -12.17,-1.89 -11.48,-1.78 -10.77,-1.60 -10.06,-1.41 -9.32,-1.35 -8.58,-1.28 -7.59,-1.21 -6.61,-1.13 -5.54,-1.01 -4.48,-0.88 -3.36,-0.92 -2.24,-0.97 -1.12,-1.02 0,-1.08 0.12,-1.06 0.25,-1.05 0.38,-1.00 0.50,-0.95 0.61,-0.88 0.71,-0.81 0.80,-0.71 0.89,-0.61 0.95,-0.49 1.01,-0.38 1.04,-0.25 1.07,-0.13 1.07,0.00 1.07,0.13 1.04,0.25 1.01,0.38 0.95,0.50 0.89,0.61 0.80,0.71 0.71,0.81 0.61,0.88 0.50,0.95 0.38,1.00 0.25,1.05 0.12,1.06 -0.00,1.08 -0.00,1.08 L 0,1.08 Z"></path></g><g transform="translate(468.18323641640364 31.791641731999704) rotate(0 11.175200888204984 -7.263880577333239)" stroke="none"><path fill="#1e1e1e" d="M 0.52,-1.05 Q 0.52,-1.05 1.17,-0.74 1.81,-0.42 2.52,-0.13 3.22,0.14 3.89,0.43 4.56,0.72 5.39,1.02 6.23,1.32 6.87,1.41 7.51,1.50 8.24,1.54 8.97,1.59 9.60,1.59 10.24,1.59 10.83,1.58 11.42,1.57 12.33,1.53 13.23,1.49 13.76,1.48 14.30,1.46 15.14,1.43 15.99,1.41 16.47,0.93 16.94,0.46 17.50,-0.10 18.05,-0.67 18.29,-1.17 18.54,-1.66 19.00,-2.49 19.46,-3.32 19.73,-3.93 19.99,-4.54 20.35,-5.44 20.71,-6.35 20.76,-7.25 20.81,-8.16 20.81,-8.87 20.81,-9.59 20.57,-10.23 20.33,-10.87 19.84,-11.37 19.35,-11.87 18.86,-12.59 18.37,-13.31 17.93,-13.72 17.49,-14.13 16.59,-14.60 15.69,-15.08 15.01,-15.07 14.34,-15.06 13.55,-15.07 12.77,-15.08 12.05,-15.29 11.33,-15.51 10.59,-15.56 9.86,-15.62 9.32,-15.62 8.78,-15.61 8.00,-15.62 7.21,-15.62 5.82,-15.62 4.44,-15.62 4.23,-15.65 4.03,-15.67 3.84,-15.74 3.65,-15.82 3.48,-15.93 3.31,-16.05 3.18,-16.20 3.04,-16.36 2.95,-16.54 2.85,-16.72 2.81,-16.92 2.76,-17.11 2.76,-17.32 2.76,-17.52 2.81,-17.72 2.86,-17.92 2.95,-18.10 3.05,-18.28 3.18,-18.43 3.32,-18.59 3.49,-18.70 3.65,-18.82 3.84,-18.89 4.04,-18.96 4.24,-18.99 4.44,-19.01 4.71,-18.97 4.98,-18.92 5.22,-18.79 5.46,-18.67 5.65,-18.47 5.84,-18.27 5.96,-18.02 6.07,-17.77 6.10,-17.50 6.13,-17.22 6.07,-16.96 6.01,-16.69 5.87,-16.45 5.73,-16.22 5.52,-16.04 5.31,-15.86 5.06,-15.76 4.80,-15.66 4.53,-15.65 4.26,-15.63 3.99,-15.71 3.73,-15.78 3.50,-15.93 3.27,-16.09 3.11,-16.30 2.94,-16.52 2.85,-16.78 2.77,-17.04 2.77,-17.32 2.77,-17.59 2.85,-17.85 2.94,-18.11 3.11,-18.33 3.27,-18.55 3.50,-18.70 3.73,-18.85 3.99,-18.93 4.26,-19.00 4.53,-18.99 4.80,-18.97 5.06,-18.87 5.31,-18.77 5.52,-18.59 5.73,-18.41 5.87,-18.18 6.01,-17.94 6.07,-17.68 6.13,-17.41 6.10,-17.14 6.07,-16.86 5.96,-16.61 5.84,-16.37 5.65,-16.17 5.46,-15.97 5.22,-15.84 4.98,-15.71 4.71,-15.67 4.44,-15.62 4.44,-15.62 4.44,-15.62 4.23,-15.65 4.03,-15.67 3.84,-15.74 3.65,-15.82 3.48,-15.93 3.31,-16.05 3.18,-16.20 3.04,-16.36 2.95,-16.54 2.85,-16.72 2.81,-16.92 2.76,-17.11 2.76,-17.32 2.76,-17.52 2.81,-17.72 2.86,-17.92 2.95,-18.10 3.05,-18.28 3.18,-18.43 3.32,-18.59 3.48,-18.70 3.65,-18.82 3.84,-18.89 4.04,-18.96 4.24,-18.99 4.44,-19.01 5.83,-19.01 7.22,-19.01 8.01,-19.01 8.81,-19.01 9.40,-18.99 10.00,-18.98 10.73,-18.91 11.46,-18.85 12.15,-18.64 12.85,-18.43 13.68,-18.42 14.50,-18.41 15.28,-18.34 16.05,-18.27 16.89,-17.94 17.74,-17.62 18.43,-17.22 19.11,-16.83 19.64,-16.28 20.17,-15.73 20.65,-15.19 21.14,-14.65 21.68,-14.08 22.23,-13.52 22.81,-12.80 23.40,-12.09 23.64,-11.46 23.88,-10.84 23.87,-10.18 23.86,-9.53 23.81,-8.75 23.77,-7.97 23.73,-7.32 23.69,-6.67 23.38,-5.60 23.06,-4.52 22.92,-3.98 22.77,-3.45 22.49,-2.66 22.21,-1.87 21.94,-1.34 21.67,-0.80 21.24,-0.16 20.81,0.47 20.22,1.26 19.62,2.05 18.91,2.48 18.19,2.91 17.81,3.30 17.44,3.69 16.76,3.93 16.09,4.17 15.19,4.14 14.29,4.11 13.76,4.10 13.22,4.08 12.30,4.03 11.38,3.98 10.77,3.95 10.16,3.92 9.49,3.88 8.82,3.84 7.98,3.78 7.14,3.72 6.36,3.58 5.58,3.43 4.59,3.16 3.59,2.89 2.98,2.61 2.36,2.32 1.55,2.01 0.75,1.70 0.11,1.38 -0.52,1.05 -0.64,0.97 -0.76,0.90 -0.86,0.79 -0.96,0.69 -1.02,0.56 -1.09,0.44 -1.13,0.30 -1.17,0.16 -1.17,0.02 -1.17,-0.11 -1.14,-0.25 -1.11,-0.39 -1.05,-0.52 -0.98,-0.65 -0.89,-0.76 -0.80,-0.87 -0.68,-0.95 -0.57,-1.03 -0.43,-1.08 -0.30,-1.14 -0.16,-1.16 -0.02,-1.18 0.11,-1.16 0.26,-1.15 0.39,-1.10 0.52,-1.05 0.52,-1.05 L 0.52,-1.05 Z"></path></g><g transform="translate(480.4759573934291 16.146360488512755) rotate(0 0 10.057680799384457)" stroke="none"><path fill="#1e1e1e" d="M 1.12,0 Q 1.12,0 1.08,0.96 1.05,1.92 1.00,2.97 0.95,4.03 0.94,4.96 0.93,5.89 0.94,6.76 0.94,7.64 0.97,8.33 1.00,9.03 1.04,9.64 1.07,10.26 1.08,11.00 1.09,11.75 1.11,12.38 1.14,13.02 1.16,13.61 1.18,14.21 1.20,14.78 1.22,15.35 1.24,15.92 1.26,16.48 1.26,18.03 1.26,19.58 1.24,19.73 1.22,19.88 1.17,20.02 1.12,20.17 1.03,20.29 0.94,20.42 0.83,20.52 0.71,20.62 0.58,20.69 0.44,20.76 0.30,20.80 0.15,20.83 -0.00,20.83 -0.15,20.83 -0.30,20.80 -0.44,20.76 -0.58,20.69 -0.71,20.62 -0.83,20.52 -0.94,20.42 -1.03,20.29 -1.12,20.17 -1.17,20.02 -1.22,19.88 -1.24,19.73 -1.26,19.58 -1.23,19.37 -1.19,19.17 -1.10,18.99 -1.00,18.81 -0.85,18.67 -0.71,18.53 -0.52,18.44 -0.33,18.36 -0.13,18.33 0.06,18.31 0.26,18.36 0.46,18.40 0.64,18.51 0.81,18.61 0.95,18.77 1.08,18.92 1.16,19.11 1.23,19.30 1.24,19.51 1.25,19.71 1.20,19.91 1.14,20.11 1.03,20.28 0.91,20.45 0.75,20.57 0.59,20.70 0.39,20.76 0.20,20.83 -0.00,20.83 -0.20,20.83 -0.39,20.76 -0.59,20.70 -0.75,20.57 -0.91,20.45 -1.03,20.28 -1.14,20.11 -1.20,19.91 -1.25,19.71 -1.24,19.51 -1.23,19.30 -1.16,19.11 -1.08,18.92 -0.95,18.77 -0.81,18.61 -0.64,18.51 -0.46,18.40 -0.26,18.36 -0.06,18.31 0.13,18.33 0.33,18.36 0.52,18.44 0.71,18.53 0.85,18.67 1.00,18.81 1.10,18.99 1.19,19.17 1.23,19.38 1.26,19.58 1.26,19.58 1.26,19.58 1.24,19.73 1.22,19.88 1.17,20.02 1.12,20.17 1.03,20.29 0.94,20.42 0.83,20.52 0.71,20.62 0.58,20.69 0.44,20.76 0.30,20.80 0.15,20.83 0.00,20.83 -0.15,20.83 -0.30,20.80 -0.44,20.76 -0.58,20.69 -0.71,20.62 -0.83,20.52 -0.94,20.42 -1.03,20.29 -1.12,20.17 -1.17,20.02 -1.22,19.88 -1.24,19.73 -1.26,19.58 -1.26,18.03 -1.26,16.48 -1.24,15.92 -1.22,15.35 -1.20,14.78 -1.18,14.21 -1.16,13.61 -1.14,13.02 -1.11,12.38 -1.09,11.75 -1.08,11.00 -1.07,10.26 -1.04,9.64 -1.00,9.03 -0.97,8.33 -0.94,7.64 -0.94,6.76 -0.93,5.89 -0.94,4.96 -0.95,4.03 -1.00,2.97 -1.05,1.92 -1.08,0.96 -1.12,0 -1.10,-0.13 -1.09,-0.26 -1.04,-0.39 -0.99,-0.52 -0.91,-0.63 -0.84,-0.74 -0.73,-0.83 -0.63,-0.92 -0.51,-0.98 -0.39,-1.05 -0.26,-1.08 -0.13,-1.11 0.00,-1.11 0.13,-1.11 0.26,-1.08 0.39,-1.05 0.51,-0.98 0.63,-0.92 0.73,-0.83 0.84,-0.74 0.91,-0.63 0.99,-0.52 1.04,-0.39 1.09,-0.26 1.10,-0.13 1.12,0.00 1.12,0.00 L 1.12,0 Z"></path></g></svg>